<svg id="Layer_1" data-name="Layer 1" xmlns="http://www.w3.org/2000/svg" viewBox="0 0 999.23 443.1"><defs><style>.cls-1{fill:#706a37;}.cls-2{fill:#fff27d;}.cls-3{fill:#ffe33b;}.cls-4{fill:#f9d438;}.cls-5{fill:#f8ee4f;}.cls-6{fill:#fffac1;}.cls-7{fill:#eadf53;}.cls-8{fill:#8c8448;}.cls-9{fill:#151515;}.cls-10{font-size:155.25px;font-family:FuturaBT-Medium, Futura Md BT;font-weight:500;}</style></defs><title>bananas</title><path class="cls-1" d="M51.26,299.28l-3.95,22.27L27.19,336c-7.4-5.47-16.06-12.13-16.19-16.5-.22-7.36,9-19.14,9-19.14C26.1,296.83,42.39,299.7,51.26,299.28Z" transform="translate(-5 -34.45)"/><path class="cls-2" d="M401.39,116.43l6.7-13.51c11.16,4,21.6,5.06,28.3,8.58,37.83,19.8,63.86,79.77,64.55,115.63,1.77,92.26-35.53,158-80.89,200.07-17.22,16-47.86,39.58-97.27,42.67-2.42.15-5.51.49-8.83.82l10.17-26.45-15.14-19c10-13.27,24-28.1,34.28-42.06,25.63-22.8,47.36-54.42,61.65-98.69,11.93-37,17.91-104.8-7.48-140.61-4.49-6.35-13.54-12.24-21.91-21.06l24-2.56Z" transform="translate(-5 -34.45)"/><path class="cls-3" d="M500.94,227.13c-.69-35.86-26.72-95.83-64.55-115.63-6.7-3.52-17.14-4.63-28.3-8.58l-6.7,13.51-1.91,3.85h-.06C421.87,145.9,437,182.64,438.79,208c6.55,92-27.28,159.65-70.4,204-9.76,10-24.14,23-44.58,33.09L314,470.69c3.32-.33,6.41-.67,8.83-.82,49.41-3.09,80.05-26.71,97.27-42.67,45.36-42.05,82.66-107.81,80.89-200.07Z" transform="translate(-5 -34.45)"/><path class="cls-2" d="M143.1,391.23l-9.76-18.16c18.84-8.86,54.85-21.82,69.33-26.78,56.09-19.21,104.56-86,118-142.83,3.45-14.58,7.37-28,21.61-69.29a21,21,0,0,0,1-4.62l16.16,5.25,16-12h0c8.37,8.82,17.42,14.71,21.91,21.06,25.39,35.81,19.41,103.65,7.48,140.61-14.29,44.27-36,75.89-61.65,98.69-26.86,23.89-58,38.12-89.37,47.1-23.28,6.67-78.15,10.16-128.84-9.78Z" transform="translate(-5 -34.45)"/><path class="cls-4" d="M397.43,143.9c-4.49-6.35-13.54-12.24-21.91-21.06h0l-10.72,8c11.83,38.11,3,91.23-8.82,122-16.74,43.4-40.2,73.76-67.06,95.1-28.15,22.35-60,34.83-91.85,42-11.83,2.69-31.51,4.13-54.43,2.06l-17.58,28.52c50.69,19.94,105.56,16.45,128.84,9.78,31.37-9,62.51-23.21,89.37-47.1,25.63-22.8,47.36-54.42,61.65-98.69,11.93-37,17.91-104.8-7.48-140.61Z" transform="translate(-5 -34.45)"/><path class="cls-5" d="M47.31,321.55l3.95-22.27a18.6,18.6,0,0,0,2.79-.3c16.29-3.12,54.9-6.56,73.23-8.37,46-4.53,120.49-50.58,147.47-100.36,6.92-12.77,11.59-26.21,35.38-61.26a18.76,18.76,0,0,0,2.08-4.09L341,129.45l2.24.08.05,0a21,21,0,0,1-1,4.62c-14.24,41.32-18.16,54.71-21.61,69.29-13.46,56.83-61.93,123.62-118,142.83-14.48,5-50.49,17.92-69.33,26.78-4.29,2-13,3.35-20.74,5.26-20.54-4.11-51.87-15.88-78.32-37-1.89-1.51-4.41-3.34-7.09-5.33Z" transform="translate(-5 -34.45)"/><path class="cls-6" d="M312.21,124.9c-.54,1.46-30.54,52.58-37.46,65.35-27,49.78-101.49,95.83-147.47,100.36C109,292.42,70.34,295.86,54.05,299a18.6,18.6,0,0,1-2.79.3l-3.95,22.27s52.07,12.79,92.42,2.89c44.87-11,120.49-50.59,147.47-100.36,6.92-12.77,44.6-96.09,44.6-96.09Z" transform="translate(-5 -34.45)"/><path class="cls-7" d="M309,425.26l15.14,19L314,470.69c-9.16.92-20.05,1.81-23.08-1.34-5.11-5.3-6.23-20.19-6.23-20.19,2.45-7.5,19.62-17.63,24.34-23.9Z" transform="translate(-5 -34.45)"/><path class="cls-1" d="M112.6,378.33c7.69-1.91,16.45-3.24,20.74-5.26l9.76,18.16-18,29.29c-8.71-3.43-27.23-9.47-29-15.33-2.2-7.26,3.78-21.47,3.78-21.47,2.39-2.39,7.32-4,12.78-5.39Z" transform="translate(-5 -34.45)"/><path class="cls-8" d="M408.09,102.92l-6.7,13.51-1.91,3.85-24,2.56c-9.26-9.75-17.69-23.09-18.23-44.6-.21-8.18,3.42-16.86-5.87-28.15l1.17-.41c15.41,5.56,16,15.32,20,22.7C382.56,90.72,395.76,98.55,408.09,102.92Z" transform="translate(-5 -34.45)"/><path class="cls-8" d="M375.52,122.84h0l-16,12-16.16-5.25c2-18-15.16-42.52-15.16-42.52l0-13.14s-10.81-16.21-3.57-29.37a4.32,4.32,0,0,1,3.53-1.92h0c7.16-.89,21.48,5.46,21.48,5.46.64.69,1.24,1.36,1.79,2,9.29,11.29,5.66,20,5.87,28.15C357.83,99.75,366.26,113.09,375.52,122.84Z" transform="translate(-5 -34.45)"/><path class="cls-8" d="M328.15,87s17.17,24.53,15.16,42.52l-.05,0-2.24-.08-28.81-4.55c6.06-16.35-6-43.86-6-43.86l5.94-12.15s-6-18,4.1-28.44l11.87,2.15a4.32,4.32,0,0,0-3.53,1.92c-7.24,13.16,3.57,29.37,3.57,29.37Z" transform="translate(-5 -34.45)"/><path class="cls-9" d="M439.18,106.18c-4.36-2.28-9.75-3.62-15.45-5-14.77-3.67-33.15-8.24-45.88-31.63a46.82,46.82,0,0,1-2-4.39c-2.78-6.67-6.59-15.81-21.23-21.1a7.1,7.1,0,0,0-.79-.22,6.1,6.1,0,0,0-1.78-1.23A100.72,100.72,0,0,0,340,38.24c-2.23-.63-7-2-11.5-1.68l-11.17-2A6,6,0,0,0,312,36.28c-10.1,10.46-7.64,26-6.17,32l-4.94,10.12a6,6,0,0,0-.11,5c3.08,7,10.06,27.93,5.88,39.29l0,.07a13.24,13.24,0,0,1-1.42,2.81c-18.44,27.17-25.71,41.87-31,52.61-1.66,3.36-3.1,6.27-4.67,9.17-26.38,48.67-99.68,93-142.78,97.24l-9.1.88c-20.1,1.93-50.46,4.85-64.67,7.57a13.27,13.27,0,0,1-1.78.19h-.2c-2.59.12-6.31-.1-9.94-.32-9-.53-18.36-1.08-24,2.14a6.1,6.1,0,0,0-1.76,1.52c-1.75,2.25-10.5,13.94-10.23,23,.22,7.06,8.11,13.4,20.13,22.26,2,1.5,4,2.93,5.4,4.08,20.88,16.7,44.92,27.82,64.63,34a5.8,5.8,0,0,0-.88,1.42c-1.14,2.7-6.67,16.65-4,25.53,2.2,7.26,13.07,11.84,28.18,17.51,1.62.6,3.1,1.16,4.37,1.66,29.2,11.48,59.72,15.46,85.27,15.46,19.75,0,36.53-2.38,47.42-5.5a257.36,257.36,0,0,0,55-22.51c-2.24,2.74-4.4,5.45-6.38,8.1-1.44,1.92-5.24,5-8.9,7.92-7,5.67-14.32,11.54-16.34,17.72a6,6,0,0,0-.28,2.31c.21,2.85,1.59,17.38,7.89,23.91,2.92,3,7.69,4,14.21,4,4.42,0,9.65-.46,15.65-1.07,2.52-.26,4.9-.5,6.74-.61,38.42-2.4,71.45-16.89,101-44.27,38.88-36,84.8-100.8,82.8-204.58-.68-36-26.8-99.39-67.75-120.83ZM363.52,73.11c.14-1.73.28-3.62.29-5.65.33.74.65,1.5,1,2.29a58.15,58.15,0,0,0,2.53,5.5c9.26,17,21.06,25.73,32.51,30.84l-4.25,8.57-17.66,1.88c-7.72-8.8-14.17-20.48-14.62-38.45a49.32,49.32,0,0,1,.23-5ZM329.34,48.48c2.91-.17,10.19,1.82,16.72,4.57,6.42,7.31,6,12.8,5.5,19.12a58.83,58.83,0,0,0-.27,6.22c.37,14.54,4.07,26.94,11.33,37.93,1.31,2,2.69,3.83,4.11,5.58l-8.36,6.23-8.92-2.9c-.24-6.94-2.38-14.92-6.43-23.87a124,124,0,0,0-8.87-16.14l0-11.31a6,6,0,0,0-1-3.35c-.08-.12-8-12.5-3.83-22.08ZM317.86,67a37.41,37.41,0,0,1-1.35-7.27,47.4,47.4,0,0,0,5.67,15.85l0,11.46a6,6,0,0,0,1.08,3.45c4,5.76,12.46,20.3,14,32.31L319.51,120c2-14.64-4-31.93-6.71-38.73l4.76-9.72a6,6,0,0,0,.3-4.55ZM27.28,328.52C22.93,325.18,18,321.08,17,319c.14-3.31,3.84-9.69,6.82-13.79,3.38-1,11.45-.52,16.47-.23,1.32.08,2.6.16,3.83.22l-2.3,12.93ZM38,336.61l-.69-.54,11.15-8c5.34,1.4,17.66,4.45,31.53,6.74A6,6,0,0,0,82,323c-11.33-1.87-21.79-4.33-27.79-5.83l2.22-12.5c14.16-2.56,43-5.33,62.33-7.19l9.14-.88C174.8,292,251.49,245.75,280,193.11c1.68-3.09,3.23-6.23,4.88-9.56,5.44-11,12.22-24.7,30.19-51.19.19-.28.36-.57.53-.85l20.15,3.18c-13.62,39.62-17.51,53-20.92,67.39-12.59,53.19-58.72,119.56-114.12,138.53-12.78,4.38-50.26,17.78-69.94,27-2.25,1.06-7.06,2.09-11.7,3.08-2.2.47-4.41.95-6.58,1.46C92.53,368,62.92,356.52,38,336.61Zm84.52,76.53c-5.26-2-18.55-7-20.84-10-.8-3.35,1.22-10.86,3.1-15.8,1.77-1.14,5.17-2.19,8.79-3.11a5.94,5.94,0,0,0,1.16-.28c2.37-.58,4.78-1.09,6.83-1.53,3.26-.7,6.25-1.34,8.88-2.06L136.18,391Zm129.69,11.39c-21.48,6.15-71.46,9.23-118.23-7.11l12.47-20.24a174,174,0,0,0,28-3.42A6,6,0,1,0,172.07,382a164.78,164.78,0,0,1-25.42,3.18l-5-9.28c20.06-8.79,51.51-20,63-23.92,27.18-9.32,54.79-30.36,77.74-59.26,21.15-26.62,37.25-58.65,44.16-87.87,3.36-14.19,7.23-27.41,21.06-67.6l10,3.26a6,6,0,0,0,5.44-.9l11.88-8.86c2.69,2.57,5.34,4.86,7.75,7,4.17,3.61,7.77,6.73,9.85,9.67,23.85,33.65,18.25,99.37,6.66,135.3-13.12,40.64-33.88,73.48-61.71,97.61-23,19.93-50.87,34.41-85.25,44.25Zm57.44,40.53c-5.6.48-12.48.86-14.7-.11-2.12-2.54-3.66-9.75-4.21-14.8,1.82-3,8.13-8.07,12-11.23,2.05-1.65,4-3.19,5.67-4.68l8.81,11.05ZM416,422.8c-10,9.31-40.52,37.55-93,41l6.71-17.44a6,6,0,0,0-.91-5.9l-12.2-15.3c4-5.07,8.44-10.33,13.12-15.83,6.25-7.36,12.7-15,18.17-22.36,28.49-25.53,49.25-58.93,62.72-100.65,11.51-35.66,19.44-106.81-8.29-145.93-2.92-4.11-7.22-7.85-11.78-11.8l-1.4-1.21,11-1.17A6,6,0,0,0,404.8,123c15.92,3.06,30,12.94,45.38,45.24a6,6,0,1,0,10.87-5.07l0-.08c-10.84-22.79-24.56-44.47-50.74-51.13l.88-1.77c3.38,1,6.63,1.81,9.67,2.56,5.2,1.29,9.7,2.41,12.78,4,36.51,19.1,60.71,78.16,61.33,110.42,1.91,99.34-41.89,161.18-79,195.56Z" transform="translate(-5 -34.45)"/><text class="cls-10" transform="translate(515 192.1)">Punta <tspan x="0" y="186.29">Delicia</tspan></text></svg>